<?xml version="1.0" standalone="no"?>
<!DOCTYPE svg PUBLIC "-//W3C//DTD SVG 20010904//EN"
 "http://www.w3.org/TR/2001/REC-SVG-20010904/DTD/svg10.dtd">
<svg version="1.0" xmlns="http://www.w3.org/2000/svg"
 width="330.000000pt" height="176.000000pt" viewBox="0 0 330.000000 176.000000"
 preserveAspectRatio="xMidYMid meet">
<metadata>
Created by potrace 1.14, written by Peter Selinger 2001-2017
</metadata>
<g transform="translate(0.000000,176.000000) scale(0.100000,-0.100000)"
fill="#000000" stroke="none">
<path d="M2457 1582 c-23 -25 -21 -58 4 -83 15 -15 19 -28 14 -49 -14 -63 46
-43 77 26 20 47 18 75 -10 107 -20 22 -64 22 -85 -1z"/>
<path d="M833 1501 c-59 -37 -64 -58 -61 -283 l3 -203 29 -3 c59 -7 75 4 78
56 l3 47 53 3 52 3 0 -44 c0 -55 15 -69 72 -65 l43 3 3 185 c3 206 -3 242 -48
285 -29 28 -38 30 -113 33 -68 2 -87 0 -114 -17z m131 -111 c25 -9 26 -14 26
-80 l0 -71 -52 3 -53 3 -3 44 c-5 74 4 93 55 110 1 1 13 -3 27 -9z"/>
<path d="M395 1498 c-3 -7 -4 -119 -3 -248 l3 -235 135 0 c118 1 141 3 170 21
61 35 74 121 28 179 -19 24 -19 27 -4 59 34 71 12 167 -47 210 -24 18 -46 22
-153 25 -98 2 -125 0 -129 -11z"/>
<path d="M1155 1498 c-3 -7 -4 -119 -3 -248 l3 -235 55 0 55 0 0 245 0 245
-53 3 c-36 2 -54 -1 -57 -10z"/>
<path d="M1312 1263 l3 -248 135 -3 c183 -4 182 -4 178 61 l-3 52 -100 5 -100
5 -3 188 -2 187 -55 0 -55 0 2 -247z"/>
<path d="M1667 1504 c-4 -4 -7 -115 -7 -246 l0 -238 171 0 170 0 -3 53 -3 52
-105 5 -105 5 -3 32 -3 32 73 3 73 3 3 57 3 57 -73 3 -73 3 -3 33 -3 32 99 0
c115 0 125 6 120 72 l-3 43 -161 3 c-88 1 -163 -1 -167 -4z"/>
<path d="M2028 1504 c-6 -5 19 -64 90 -214 31 -66 36 -88 41 -175 l6 -100 60
0 60 0 3 88 c3 85 6 95 71 243 38 84 66 156 63 159 -3 3 -31 5 -63 5 -66 0
-73 -6 -105 -98 -10 -29 -23 -51 -28 -49 -6 2 -23 36 -39 75 l-29 72 -62 0
c-35 0 -65 -3 -68 -6z"/>
<path d="M2672 1495 c-96 -42 -116 -164 -38 -233 19 -16 66 -42 105 -57 59
-24 71 -32 71 -51 0 -26 -26 -44 -63 -44 -25 0 -49 21 -61 54 -5 16 -13 17
-54 11 -26 -4 -50 -9 -54 -12 -13 -8 -9 -35 13 -80 28 -59 82 -87 164 -86 110
1 185 61 185 148 0 69 -28 99 -148 156 -71 34 -83 43 -80 62 6 41 93 35 104
-8 7 -28 20 -30 77 -14 41 11 47 31 23 77 -42 80 -155 115 -244 77z"/>
<path d="M1563 646 c-18 -8 -42 -30 -53 -48 -19 -31 -20 -47 -18 -238 l3 -205
29 -3 c59 -7 75 4 78 56 l3 47 53 3 52 3 0 -50 c0 -45 3 -51 24 -57 13 -3 38
-4 57 -2 l34 3 3 183 c1 101 -2 200 -8 221 -5 20 -24 50 -40 66 -28 27 -38 30
-108 33 -51 1 -88 -3 -109 -12z m121 -116 c25 -9 26 -14 26 -80 l0 -71 -52 3
-53 3 -3 49 c-4 68 4 94 31 99 12 2 23 5 24 6 1 0 13 -3 27 -9z"/>
<path d="M297 644 c-4 -4 -7 -29 -7 -55 0 -55 3 -57 95 -61 l50 -3 5 -185 5
-185 50 0 50 0 5 185 5 185 67 3 c75 3 83 12 76 83 l-3 34 -196 3 c-107 1
-198 -1 -202 -4z"/>
<path d="M735 638 c-3 -7 -4 -119 -3 -248 l3 -235 34 -3 c19 -2 44 -1 57 2 23
6 24 11 24 82 l0 75 58 -3 57 -3 5 -75 5 -75 50 0 50 0 3 248 2 247 -54 0 -55
0 -3 -107 -3 -108 -57 -3 -57 -3 -3 108 -3 108 -53 3 c-36 2 -54 -1 -57 -10z"/>
<path d="M1127 644 c-4 -4 -7 -115 -7 -246 l0 -238 171 0 170 0 -3 53 -3 52
-105 5 -105 5 -3 32 -3 32 73 3 73 3 3 57 3 57 -73 3 -73 3 -3 33 -3 32 99 0
c115 0 125 6 120 72 l-3 43 -161 3 c-88 1 -163 -1 -167 -4z"/>
<path d="M1857 644 c-4 -4 -7 -29 -7 -55 0 -55 3 -57 95 -61 l50 -3 5 -185 5
-185 50 0 50 0 5 185 5 185 67 3 c75 3 83 12 76 83 l-3 34 -196 3 c-107 1
-198 -1 -202 -4z"/>
<path d="M2298 644 c-5 -4 -8 -115 -8 -246 l0 -239 58 3 57 3 3 73 3 73 31 -3
c27 -3 35 -12 67 -73 l36 -70 58 -3 c71 -4 72 3 17 103 -37 66 -39 74 -23 86
43 37 58 155 25 218 -32 65 -59 76 -195 79 -67 2 -125 0 -129 -4z"/>
<path d="M2687 644 c-4 -4 -7 -115 -7 -246 l0 -238 171 0 170 0 -3 53 -3 52
-105 5 -105 5 -3 32 -3 32 73 3 73 3 3 57 3 57 -73 3 -73 3 -3 33 -3 32 99 0
c115 0 125 6 120 72 l-3 43 -161 3 c-88 1 -163 -1 -167 -4z"/>
</g>
</svg>
